<svg width="125" height="101" viewBox="0 0 125 101" fill="none" xmlns="http://www.w3.org/2000/svg">
<path opacity="0.75" d="M0.309814 100.455C27.8915 100.455 50.2822 78.0524 50.2822 50.4563C50.2822 22.8602 27.8915 0.457764 0.309814 0.457764V24.5656V100.455Z" fill="#536DFE"/>
<path opacity="0.75" d="M24.8699 100.455C52.4515 100.455 74.8423 78.0524 74.8423 50.4563C74.8423 22.8602 52.4515 0.457764 24.8699 0.457764V24.5656V100.455Z" fill="#3F51B5"/>
<path opacity="0.75" d="M49.8948 100.455C77.4764 100.455 99.8672 78.0524 99.8672 50.4563C99.8672 22.8602 77.4764 0.457764 49.8948 0.457764V24.5656V100.455Z" fill="#F44336"/>
<path opacity="0.75" d="M74.8423 100.455C102.424 100.455 124.815 78.0524 124.815 50.4563C124.815 22.8602 102.424 0.457764 74.8423 0.457764V24.5656V100.455Z" fill="#FFA000"/>
</svg>
