<svg width="54" height="54" viewBox="0 0 54 54" fill="none" xmlns="http://www.w3.org/2000/svg">
<g filter="url(#filter0_ddiii_1202_5920)">
<g clip-path="url(#clip0_1202_5920)">
<rect x="3" width="48" height="48" rx="12" fill="#1A61EF"/>
<rect width="48" height="48" transform="translate(3)" fill="url(#paint0_linear_1202_5920)"/>
<g clip-path="url(#clip1_1202_5920)" filter="url(#filter1_d_1202_5920)">
<path d="M30.8155 9.7904L27.8658 9L25.38 18.2772L23.1357 9.90168L20.1859 10.6921L22.6107 19.7412L16.5712 13.7017L14.4118 15.8611L21.0363 22.4858L12.7865 20.2752L11.9961 23.225L21.0101 25.6403C20.9069 25.1951 20.8523 24.7313 20.8523 24.2548C20.8523 20.8816 23.5868 18.1471 26.96 18.1471C30.3332 18.1471 33.0677 20.8816 33.0677 24.2548C33.0677 24.7283 33.0138 25.1892 32.9119 25.6317L41.1039 27.8267L41.8942 24.877L32.8444 22.4521L41.0948 20.2414L40.3044 17.2916L31.2549 19.7164L37.2944 13.6769L35.135 11.5176L28.6023 18.0502L30.8155 9.7904Z" fill="url(#paint1_linear_1202_5920)"/>
<path d="M32.9032 25.6661C32.6503 26.7353 32.1164 27.6958 31.3838 28.4654L37.3186 34.4002L39.478 32.2408L32.9032 25.6661Z" fill="url(#paint2_linear_1202_5920)"/>
<path d="M31.3239 28.5274C30.5824 29.2847 29.6455 29.8498 28.5947 30.141L30.7543 38.2006L33.704 37.4101L31.3239 28.5274Z" fill="url(#paint3_linear_1202_5920)"/>
<path d="M28.4845 30.1705C27.997 30.2959 27.4861 30.3625 26.9595 30.3625C26.3953 30.3625 25.849 30.286 25.3304 30.1428L23.1689 38.2097L26.1186 39L28.4845 30.1705Z" fill="url(#paint4_linear_1202_5920)"/>
<path d="M25.2261 30.113C24.1914 29.8073 23.2711 29.235 22.5448 28.4756L16.5954 34.425L18.7548 36.5844L25.2261 30.113Z" fill="url(#paint5_linear_1202_5920)"/>
<path d="M22.4957 28.423C21.7819 27.6587 21.2619 26.711 21.0144 25.6583L12.7956 27.8605L13.586 30.8103L22.4957 28.423Z" fill="url(#paint6_linear_1202_5920)"/>
</g>
</g>
<rect x="4" y="1" width="46" height="46" rx="11" stroke="url(#paint7_linear_1202_5920)" stroke-width="2"/>
</g>
<defs>
<filter id="filter0_ddiii_1202_5920" x="0" y="-3" width="54" height="57" filterUnits="userSpaceOnUse" color-interpolation-filters="sRGB">
<feFlood flood-opacity="0" result="BackgroundImageFix"/>
<feColorMatrix in="SourceAlpha" type="matrix" values="0 0 0 0 0 0 0 0 0 0 0 0 0 0 0 0 0 0 127 0" result="hardAlpha"/>
<feOffset dy="1"/>
<feGaussianBlur stdDeviation="0.5"/>
<feComposite in2="hardAlpha" operator="out"/>
<feColorMatrix type="matrix" values="0 0 0 0 0.162923 0 0 0 0 0.162923 0 0 0 0 0.162923 0 0 0 0.08 0"/>
<feBlend mode="normal" in2="BackgroundImageFix" result="effect1_dropShadow_1202_5920"/>
<feColorMatrix in="SourceAlpha" type="matrix" values="0 0 0 0 0 0 0 0 0 0 0 0 0 0 0 0 0 0 127 0" result="hardAlpha"/>
<feMorphology radius="1" operator="erode" in="SourceAlpha" result="effect2_dropShadow_1202_5920"/>
<feOffset dy="3"/>
<feGaussianBlur stdDeviation="2"/>
<feComposite in2="hardAlpha" operator="out"/>
<feColorMatrix type="matrix" values="0 0 0 0 0.164706 0 0 0 0 0.164706 0 0 0 0 0.164706 0 0 0 0.14 0"/>
<feBlend mode="normal" in2="effect1_dropShadow_1202_5920" result="effect2_dropShadow_1202_5920"/>
<feBlend mode="normal" in="SourceGraphic" in2="effect2_dropShadow_1202_5920" result="shape"/>
<feColorMatrix in="SourceAlpha" type="matrix" values="0 0 0 0 0 0 0 0 0 0 0 0 0 0 0 0 0 0 127 0" result="hardAlpha"/>
<feOffset dy="-3"/>
<feGaussianBlur stdDeviation="1.5"/>
<feComposite in2="hardAlpha" operator="arithmetic" k2="-1" k3="1"/>
<feColorMatrix type="matrix" values="0 0 0 0 0 0 0 0 0 0 0 0 0 0 0 0 0 0 0.1 0"/>
<feBlend mode="normal" in2="shape" result="effect3_innerShadow_1202_5920"/>
<feColorMatrix in="SourceAlpha" type="matrix" values="0 0 0 0 0 0 0 0 0 0 0 0 0 0 0 0 0 0 127 0" result="hardAlpha"/>
<feOffset dy="3"/>
<feGaussianBlur stdDeviation="1.5"/>
<feComposite in2="hardAlpha" operator="arithmetic" k2="-1" k3="1"/>
<feColorMatrix type="matrix" values="0 0 0 0 1 0 0 0 0 1 0 0 0 0 1 0 0 0 0.1 0"/>
<feBlend mode="normal" in2="effect3_innerShadow_1202_5920" result="effect4_innerShadow_1202_5920"/>
<feColorMatrix in="SourceAlpha" type="matrix" values="0 0 0 0 0 0 0 0 0 0 0 0 0 0 0 0 0 0 127 0" result="hardAlpha"/>
<feMorphology radius="1" operator="erode" in="SourceAlpha" result="effect5_innerShadow_1202_5920"/>
<feOffset/>
<feComposite in2="hardAlpha" operator="arithmetic" k2="-1" k3="1"/>
<feColorMatrix type="matrix" values="0 0 0 0 0 0 0 0 0 0 0 0 0 0 0 0 0 0 0.2 0"/>
<feBlend mode="normal" in2="effect4_innerShadow_1202_5920" result="effect5_innerShadow_1202_5920"/>
</filter>
<filter id="filter1_d_1202_5920" x="9" y="5.25" width="36" height="42" filterUnits="userSpaceOnUse" color-interpolation-filters="sRGB">
<feFlood flood-opacity="0" result="BackgroundImageFix"/>
<feColorMatrix in="SourceAlpha" type="matrix" values="0 0 0 0 0 0 0 0 0 0 0 0 0 0 0 0 0 0 127 0" result="hardAlpha"/>
<feMorphology radius="1.5" operator="erode" in="SourceAlpha" result="effect1_dropShadow_1202_5920"/>
<feOffset dy="2.25"/>
<feGaussianBlur stdDeviation="2.25"/>
<feComposite in2="hardAlpha" operator="out"/>
<feColorMatrix type="matrix" values="0 0 0 0 0.141176 0 0 0 0 0.141176 0 0 0 0 0.141176 0 0 0 0.1 0"/>
<feBlend mode="normal" in2="BackgroundImageFix" result="effect1_dropShadow_1202_5920"/>
<feBlend mode="normal" in="SourceGraphic" in2="effect1_dropShadow_1202_5920" result="shape"/>
</filter>
<linearGradient id="paint0_linear_1202_5920" x1="24" y1="5.96047e-07" x2="26" y2="48" gradientUnits="userSpaceOnUse">
<stop stop-color="white" stop-opacity="0"/>
<stop offset="1" stop-color="white" stop-opacity="0.12"/>
</linearGradient>
<linearGradient id="paint1_linear_1202_5920" x1="26.9452" y1="9" x2="26.9452" y2="39" gradientUnits="userSpaceOnUse">
<stop stop-color="white" stop-opacity="0.8"/>
<stop offset="1" stop-color="white" stop-opacity="0.5"/>
</linearGradient>
<linearGradient id="paint2_linear_1202_5920" x1="26.9452" y1="9" x2="26.9452" y2="39" gradientUnits="userSpaceOnUse">
<stop stop-color="white" stop-opacity="0.8"/>
<stop offset="1" stop-color="white" stop-opacity="0.5"/>
</linearGradient>
<linearGradient id="paint3_linear_1202_5920" x1="26.9452" y1="9" x2="26.9452" y2="39" gradientUnits="userSpaceOnUse">
<stop stop-color="white" stop-opacity="0.8"/>
<stop offset="1" stop-color="white" stop-opacity="0.5"/>
</linearGradient>
<linearGradient id="paint4_linear_1202_5920" x1="26.9452" y1="9" x2="26.9452" y2="39" gradientUnits="userSpaceOnUse">
<stop stop-color="white" stop-opacity="0.8"/>
<stop offset="1" stop-color="white" stop-opacity="0.5"/>
</linearGradient>
<linearGradient id="paint5_linear_1202_5920" x1="26.9452" y1="9" x2="26.9452" y2="39" gradientUnits="userSpaceOnUse">
<stop stop-color="white" stop-opacity="0.8"/>
<stop offset="1" stop-color="white" stop-opacity="0.5"/>
</linearGradient>
<linearGradient id="paint6_linear_1202_5920" x1="26.9452" y1="9" x2="26.9452" y2="39" gradientUnits="userSpaceOnUse">
<stop stop-color="white" stop-opacity="0.8"/>
<stop offset="1" stop-color="white" stop-opacity="0.5"/>
</linearGradient>
<linearGradient id="paint7_linear_1202_5920" x1="27" y1="0" x2="27" y2="48" gradientUnits="userSpaceOnUse">
<stop stop-color="white" stop-opacity="0.12"/>
<stop offset="1" stop-color="white" stop-opacity="0"/>
</linearGradient>
<clipPath id="clip0_1202_5920">
<rect x="3" width="48" height="48" rx="12" fill="white"/>
</clipPath>
<clipPath id="clip1_1202_5920">
<rect width="30" height="36" fill="white" transform="translate(12 6)"/>
</clipPath>
</defs>
</svg>
